Coordinates
version=1
nRows=15
nColumns=42
inDegrees=yes

Units are S.I. units (second, meters, Newtons, ...)
If the header above contains a line with 'inDegrees', this indicates whether rotational values are in degrees (yes) or radians (no).

endheader
time	pelvis_tilt	pelvis_list	pelvis_rotation	pelvis_tx	pelvis_ty	pelvis_tz	hip_flexion_r	hip_adduction_r	hip_rotation_r	knee_angle_r	knee_angle_r_beta	ankle_angle_r	subtalar_angle_r	mtp_angle_r	hip_flexion_l	hip_adduction_l	hip_rotation_l	knee_angle_l	knee_angle_l_beta	ankle_angle_l	subtalar_angle_l	mtp_angle_l	lumbar_extension	lumbar_bending	lumbar_rotation	sh_tx_r	sh_ty_r	sh_tz_r	sh_plane_elev_r	sh_elev_r	sh_axial_rot_r	elbow_flex_r	pro_sup_r	sh_tx_l	sh_ty_l	sh_tz_l	sh_plane_elev_l	sh_elev_l	sh_axial_rot_l	elbow_flex_l	pro_sup_l
      4.33898310	     -2.45079065	      1.07940291	      2.27646898	      0.25247370	      0.94182075	     -0.09004276	     -1.57354412	     -3.98344017	     -2.76823680	      1.40428013	      0.02450931	      0.57802923	     -7.52150808	     -7.49999987	      0.38340334	     -1.02934805	    -10.53469822	      0.57135283	      0.00997199	      5.21026954	      7.87092388	     -7.49999987	     -4.29986421	     -2.41549697	      0.71570505	     -0.00991588	      0.00535707	     -0.00479391	    147.56446345	    204.15078136	     17.60501576	     35.73144670	     79.40852907	     -0.00340391	      0.00122913	     -0.00499914	    147.03453311	    198.40317633	     10.29357620	     38.39763445	     84.13792100
      4.35593220	     -2.44031704	      1.07339619	      2.29016733	      0.25278911	      0.93924329	     -0.08929114	     -1.60362288	     -3.96869994	     -2.71597331	      1.41251352	      0.02465301	      0.61479389	     -7.58296073	     -7.49999987	      0.34948781	     -0.99840190	    -10.55305504	      0.56465276	      0.00985505	      5.37477669	      7.81953111	     -7.49999987	     -4.34275426	     -2.35981505	      0.71545818	     -0.01061202	      0.00631875	     -0.00485414	    147.48081559	    204.17439638	     17.35475801	     36.24733002	     78.27440077	     -0.00378601	      0.00229381	     -0.00498478	    146.91128819	    198.72521485	     10.50845541	     38.74201184	     83.02035006
      4.37288140	     -2.43492036	      1.08906288	      2.30640430	      0.25256722	      0.94022569	     -0.08998162	     -1.61738124	     -3.98094830	     -2.76692349	      1.44322228	      0.02518898	      0.66190695	     -7.64618002	     -7.49999987	      0.32919821	     -0.94097101	    -10.66190048	      0.57201356	      0.00998352	      5.43535351	      7.72975538	     -7.49999987	     -4.27067261	     -2.32392482	      0.73120327	     -0.00975666	      0.00646467	     -0.00477648	    147.47082244	    204.16965406	     17.35559267	     36.30115292	     78.29687588	     -0.00382609	      0.00291520	     -0.00496719	    146.92043765	    198.79175607	     10.50291125	     38.74479657	     83.04794209
      4.38983050	     -2.45472656	      1.09425368	      2.29079714	      0.25297609	      0.93861852	     -0.09001336	     -1.59635601	     -3.97196590	     -2.65144270	      1.50249603	      0.02622350	      0.63882745	     -7.90227073	     -7.49999987	      0.34259831	     -0.89590716	    -10.69648883	      0.58814015	      0.01026498	      5.47046905	      7.54634949	     -7.49999987	     -4.23971123	     -2.25696680	      0.94171344	     -0.01077437	      0.00796540	     -0.00481805	    147.51495742	    204.30171203	     17.54245036	     37.11533060	     78.34645309	     -0.00324065	      0.00364057	     -0.00500415	    146.95988464	    198.94285325	     10.42171071	     38.84334930	     83.32273172
      4.40677970	     -2.46452648	      1.10917708	      2.23410305	      0.25303875	      0.94085819	     -0.08995870	     -1.57347324	     -3.97824633	     -2.68719756	      1.56128661	      0.02724959	      0.68019398	     -7.94491234	     -7.49999987	      0.33781169	     -0.84447131	    -10.96903581	      0.58988788	      0.01029549	      5.54662546	      7.67822749	     -7.49999987	     -4.15535322	     -2.18460138	      0.90758588	     -0.01004276	      0.00803818	     -0.00485619	    147.49650150	    204.30864255	     17.59744696	     37.38827229	     77.03019502	     -0.00325911	      0.00348737	     -0.00503582	    146.91377263	    199.24609871	     10.68272636	     38.60400035	     82.41074617
      4.42372880	     -2.60774045	      1.09090719	      2.25823348	      0.25272618	      0.94117834	     -0.09034852	     -1.15470376	     -3.98210594	     -2.91107592	      2.11254281	      0.03687083	      0.93849187	     -7.88096715	     -7.49999987	      0.74498782	     -0.85222440	    -11.05406798	      1.07900728	      0.01883223	      5.78699907	      7.40983310	     -7.49999987	     -4.03350755	     -2.05511724	      0.84725225	     -0.00738734	      0.00766666	     -0.00471077	    145.70126031	    204.35935399	     16.69323327	     36.63349791	     75.53012471	     -0.00102511	      0.00364024	     -0.00479233	    144.58002622	    199.84551171	      9.04418243	     37.83434759	     81.04639129
      4.44067800	     -2.46791680	      1.09491498	      2.24291019	      0.25387664	      0.94379154	     -0.09028510	     -1.56199204	     -3.96011921	     -2.82850401	      1.62426188	      0.02834872	      0.54500901	     -8.10085415	     -7.49999987	      0.30776656	     -0.77509692	    -11.12470956	      0.58650415	      0.01023643	      5.49016083	      7.32591420	     -7.49999987	     -4.11961779	     -1.86787198	      0.25512204	     -0.00768905	      0.00670789	     -0.00496839	    147.51183254	    204.11485481	     16.29899711	     37.62644292	     79.39466998	     -0.00477365	      0.00247863	     -0.00510442	    147.17260629	    200.46934486	     11.79192489	     39.70497818	     84.97486735
      4.45762710	     -2.43905623	      1.08124877	      2.22508348	      0.25326165	      0.94315164	     -0.08992371	     -1.58184252	     -3.94695868	     -2.85835559	      1.64603019	      0.02872865	      0.51686530	     -8.18339337	     -7.49999987	      0.26055609	     -0.75358271	    -11.35202599	      0.58360518	      0.01018583	      5.49806966	      7.50299066	     -7.49999987	     -4.07102094	     -1.89062218	      0.54442161	     -0.00850294	      0.00657940	     -0.00503853	    147.45404470	    204.31908089	     16.80852293	     38.08818014	     77.23787834	     -0.00377141	      0.00266064	     -0.00518073	    146.99294090	    200.62148090	     11.75019271	     39.76365060	     82.59788021
      4.47457630	     -2.43837666	      1.04336483	      2.24176003	      0.25147295	      0.93845158	     -0.08820947	     -1.53659217	     -3.87997939	     -2.90437252	      1.67831634	      0.02929215	      0.55751925	     -8.47722980	     -7.49999987	      0.25888090	     -0.78095832	    -11.22001519	      0.58839001	      0.01026934	      5.42164440	      7.06050971	     -7.49999987	     -4.03078310	     -1.80675903	      0.43639319	     -0.00836668	      0.00718613	     -0.00503381	    147.39825625	    204.01080436	     16.03193271	     37.72867941	     80.46594230	     -0.00449027	      0.00359546	     -0.00517850	    147.02283260	    200.75351087	     11.26350967	     39.38778458	     86.54703089
      4.49152540	     -2.44257630	      1.03010135	      2.21870895	      0.25239136	      0.94257467	     -0.08852370	     -1.50564863	     -3.83796104	     -2.92484350	      1.69694273	      0.02961724	      0.54024022	     -8.65397638	     -7.49999987	      0.24780559	     -0.82307903	    -11.43873244	      0.59445839	      0.01037526	      5.33260554	      7.16736993	     -7.49999987	     -3.96497455	     -1.66889308	      0.21610596	     -0.00739926	      0.00791068	     -0.00506860	    147.33310694	    203.93924864	     15.83830725	     37.87580264	     79.78690203	     -0.00489596	      0.00369529	     -0.00522146	    147.04192266	    201.15672808	     11.60428096	     39.05135454	     86.18586344
      4.50847460	     -2.47667516	      1.01192412	      2.23983920	      0.25282998	      0.93771701	     -0.08769009	     -1.44017359	     -3.77830839	     -2.83377008	      1.72418744	      0.03009275	      0.49975686	     -9.06478044	     -7.49999987	      0.29057805	     -0.84986643	    -11.44140598	      0.60270127	      0.01051912	      5.34648066	      7.05978258	     -7.49999987	     -3.86727687	     -1.68508688	      0.20862050	     -0.00752804	      0.00839650	     -0.00507760	    147.36209197	    204.05335487	     16.19597586	     37.92397423	     79.49451800	     -0.00433777	      0.00387452	     -0.00525255	    147.03440232	    201.17245189	     11.09978928	     38.56579962	     86.27062676
      4.52542370	     -2.61923364	      0.99943973	      2.31309281	      0.25151545	      0.93847686	     -0.08817424	     -0.97675533	     -3.75735849	     -3.07005350	      2.28217263	      0.03983143	      0.99653044	     -8.92377821	     -7.49999987	      0.73664054	     -0.94413994	    -11.41823818	      1.12872910	      0.01970004	      5.52241842	      6.73853626	     -7.49999987	     -3.81048526	     -1.53000382	     -0.11572588	     -0.00442767	      0.00910040	     -0.00471499	    145.21358806	    203.89524191	     14.71696154	     36.76541186	     77.89609871	     -0.00274863	      0.00436024	     -0.00480486	    144.69382076	    201.66807321	      8.67987389	     37.00995637	     84.39781406
      4.54237290	     -2.46891486	      1.02165086	      2.26118420	      0.25149938	      0.93989621	     -0.08891389	     -1.35498820	     -3.74848901	     -2.83191054	      1.81361133	      0.03165349	      0.42910712	     -9.57586188	     -7.49999987	      0.33576999	     -0.88657109	    -11.60123071	      0.62115854	      0.01084126	      5.24591268	      6.95391870	     -7.49999987	     -4.06438693	     -1.59099002	      0.04130732	     -0.00700215	      0.00908377	     -0.00503661	    147.51844573	    204.40556253	     16.78432128	     39.69457333	     76.97232308	     -0.00462780	      0.00432764	     -0.00522382	    147.19520814	    201.94581613	     11.39281646	     38.74641158	     83.77328430
      4.55932200	     -2.46559582	      1.00068070	      2.29898956	      0.25176781	      0.93779784	     -0.08810189	     -1.30507314	     -3.69596552	     -2.84167352	      1.91003040	      0.03333632	      0.39963608	     -9.92631919	     -7.49999987	      0.36247954	     -0.92480951	    -11.62022715	      0.63202779	      0.01103097	      5.11129912	      6.66831001	     -7.49999987	     -4.18809263	     -1.38211313	     -0.37327974	     -0.00590671	      0.00988863	     -0.00501737	    147.54460340	    204.26336178	     15.75816948	     40.09646864	     78.74940708	     -0.00578529	      0.00413090	     -0.00517831	    147.36590777	    202.39161483	     11.30679306	     38.91240852	     86.05259118
      4.57627120	     -2.48711686	      1.03915587	      2.32417406	      0.25174765	      0.93812157	     -0.08842336	     -1.25517101	     -3.72773798	     -2.83737049	      1.98667004	      0.03467393	      0.52011264	    -10.02616763	     -7.49999987	      0.39334498	     -0.91716654	    -11.69707563	      0.64390764	      0.01123831	      5.03251983	      6.72407403	     -7.49999987	     -4.25299256	     -1.46836321	     -0.31788070	     -0.00653629	      0.01061399	     -0.00495057	    147.66038304	    204.64891490	     16.28919256	     41.22685260	     77.43408718	     -0.00544235	      0.00469394	     -0.00514326	    147.43463846	    202.62174263	     11.38304347	     39.01004464	     84.40597948
